<svg width="34" height="34" viewBox="0 0 34 34" fill="none" xmlns="http://www.w3.org/2000/svg">
<path fill-rule="evenodd" clip-rule="evenodd" d="M34 17C34 26.3888 26.3888 34 17 34C7.61116 34 0 26.3888 0 17C0 7.61116 7.61116 0 17 0C26.3888 0 34 7.61116 34 17ZM16.9998 17.0011C20.0376 17.0011 22.5003 14.5384 22.5003 11.5005C22.5003 8.46268 20.0376 6 16.9998 6C13.9619 6 11.4993 8.46268 11.4993 11.5005C11.4993 14.5384 13.9619 17.0011 16.9998 17.0011ZM7 28.0021C7 23.4476 11.4884 19.7513 17 19.7513C22.5116 19.7513 27 23.4476 27 28.0021C27 28.3101 26.758 28.5522 26.4499 28.5522H7.55006C7.24203 28.5522 7 28.3101 7 28.0021Z" fill="white"/>
</svg>
